<?xml version="1.0" encoding="UTF-8" standalone="no"?> <svg width="512" height="512" viewBox="0 0 512 512" fill="none" xmlns="http://www.w3.org/2000/svg">
<path fill-rule="evenodd" clip-rule="evenodd" d="M72 64C72 50.7452 82.7452 40 96 40H440V408H96C86.9952 408 78.6853 410.976 72 415.997V64ZM56 448V64C56 41.9086 73.9086 24 96 24H440C448.837 24 456 31.1635 456 40V415.978V416C456 420.418 452.418 424 448 424C434.745 424 424 434.745 424 448C424 461.255 434.745 472 448 472C452.418 472 456 475.582 456 480C456 484.418 452.418 488 448 488H96C73.9086 488 56 470.091 56 448ZM408 448C408 457.005 410.976 465.315 415.997 472H96C82.7452 472 72 461.255 72 448C72 434.745 82.7452 424 96 424H415.997C410.976 430.685 408 438.995 408 448ZM250.343 122.343C253.467 119.219 258.533 119.219 261.657 122.343L287.431 148.117H323.884C328.302 148.117 331.884 151.699 331.884 156.117V192.57L357.657 218.343C360.781 221.467 360.781 226.533 357.657 229.657L331.884 255.43V291.882C331.884 296.3 328.302 299.882 323.884 299.882H287.432L261.657 325.657C258.533 328.781 253.467 328.781 250.343 325.657L224.568 299.882H188.119C183.701 299.882 180.119 296.3 180.119 291.882V255.433L154.343 229.657C151.219 226.533 151.219 221.467 154.343 218.343L180.119 192.567V156.117C180.119 151.699 183.701 148.117 188.119 148.117H224.569L250.343 122.343ZM256 139.314L233.54 161.774C232.039 163.274 230.005 164.117 227.883 164.117H196.119V195.881C196.119 198.003 195.276 200.037 193.776 201.538L171.314 224L193.776 246.462C195.276 247.963 196.119 249.997 196.119 252.119V283.882H227.882C230.003 283.882 232.038 284.725 233.539 286.225L256 308.686L278.461 286.225C279.962 284.725 281.997 283.882 284.118 283.882H315.884V252.116C315.884 249.995 316.727 247.96 318.227 246.46L340.686 224L318.227 201.541C316.727 200.04 315.884 198.005 315.884 195.884V164.117H284.117C281.995 164.117 279.961 163.274 278.46 161.774L256 139.314ZM295.598 218.344L261.657 184.403C258.533 181.279 253.467 181.279 250.343 184.403L216.402 218.344C213.278 221.468 213.278 226.534 216.402 229.658L250.343 263.599C253.467 266.723 258.533 266.723 261.657 263.599L295.598 229.658C298.722 226.534 298.722 221.468 295.598 218.344ZM233.373 224.001L256 201.374L278.627 224.001L256 246.628L233.373 224.001Z" fill="black"/>
</svg>
